<svg xmlns="http://www.w3.org/2000/svg" width="900" height="900" viewBox="0 0 900 900">
  <defs>
    <linearGradient id="csBrand" x1="0" y1="0" x2="1" y2="1">
      <stop offset="0" stop-color="#071A33"></stop>
      <stop offset="1" stop-color="#14B8A6"></stop>
    </linearGradient>
    <linearGradient id="csTech" x1="0" y1="0" x2="1" y2="0">
      <stop offset="0" stop-color="#071A33"></stop>
      <stop offset="1" stop-color="#1463FF"></stop>
    </linearGradient>
  </defs>

  <!-- SYMBOL -->
  <g transform="translate(210,170) scale(1.35)">
    <path d="M200 45 A115 115 0 1 0 200 245" fill="none" stroke="url(#csBrand)" stroke-width="30" stroke-linecap="round"></path>
    <path d="M200 70 A90 90 0 1 0 200 220" fill="none" stroke="#ECFEFF" stroke-width="10" stroke-linecap="round" opacity="0.95"></path>
    <circle cx="200" cy="45" r="16" fill="#14B8A6"></circle>
    <circle cx="85" cy="145" r="16" fill="#1463FF"></circle>
    <circle cx="200" cy="245" r="16" fill="#071A33"></circle>
    <path d="M200 45 L145 95" stroke="#ECFEFF" stroke-width="6" stroke-linecap="round" opacity="0.85"></path>
    <path d="M85 145 L130 160" stroke="#ECFEFF" stroke-width="6" stroke-linecap="round" opacity="0.85"></path>
    <path d="M200 245 L145 200" stroke="#ECFEFF" stroke-width="6" stroke-linecap="round" opacity="0.85"></path>
    <circle cx="145" cy="95" r="8" fill="#ECFEFF"></circle>
    <circle cx="130" cy="160" r="8" fill="#ECFEFF"></circle>
    <circle cx="145" cy="200" r="8" fill="#ECFEFF"></circle>
  </g>

  <!-- TEXT -->
  <g transform="translate(130,610)">
    <text x="0" y="70" font-family="Sora, Poppins, Montserrat, Arial, sans-serif" font-size="96" font-weight="800" fill="url(#csTech)">Conecta</text>
    <text x="470" y="70" font-family="Sora, Poppins, Montserrat, Arial, sans-serif" font-size="96" font-weight="700" fill="#14B8A6">Sistemas</text>
    <text x="0" y="125" font-family="Inter, system-ui, -apple-system, Segoe UI, Roboto, Arial, sans-serif" font-size="28" font-weight="500" letter-spacing="1.2" fill="#5A6B84">Gestão Inteligente</text>
  </g>
</svg>