<svg xmlns="http://www.w3.org/2000/svg" width="512" height="512" viewBox="0 0 512 512">
  <defs>
    <linearGradient id="csTech" x1="0" y1="0" x2="1" y2="1">
      <stop offset="0" stop-color="#071A33"></stop><stop offset="1" stop-color="#1463FF"></stop>
    </linearGradient>
    <linearGradient id="csTeal" x1="0" y1="0" x2="1" y2="1">
      <stop offset="0" stop-color="#14B8A6"></stop><stop offset="1" stop-color="#5EEAD4"></stop>
    </linearGradient>
  </defs>

  <rect x="64" y="64" width="384" height="384" rx="84" fill="#ECFEFF"></rect>

  <rect x="140" y="150" width="105" height="250" rx="14" fill="url(#csTech)"></rect>
  <rect x="255" y="120" width="120" height="280" rx="14" fill="url(#csTeal)"></rect>

  <g fill="#ECFEFF" opacity="0.90">
    <rect x="160" y="175" width="18" height="18" rx="4"></rect><rect x="188" y="175" width="18" height="18" rx="4"></rect>
    <rect x="160" y="205" width="18" height="18" rx="4"></rect><rect x="188" y="205" width="18" height="18" rx="4"></rect>
    <rect x="160" y="235" width="18" height="18" rx="4"></rect><rect x="188" y="235" width="18" height="18" rx="4"></rect>
    <rect x="278" y="150" width="20" height="20" rx="4"></rect><rect x="308" y="150" width="20" height="20" rx="4"></rect>
    <rect x="278" y="182" width="20" height="20" rx="4"></rect><rect x="308" y="182" width="20" height="20" rx="4"></rect>
  </g>

  <circle cx="372" cy="372" r="54" fill="#FFFFFF"></circle>
  <path d="M348 372 l16 16 34-40" fill="none" stroke="#14B8A6" stroke-width="14" stroke-linecap="round" stroke-linejoin="round"></path>
</svg>